<svg xmlns="http://www.w3.org/2000/svg" viewBox="0 0 64 64">
  <path fill="#0ea5e9" d="M20 10c0-3.314 2.686-6 6-6h12c3.314 0 6 2.686 6 6v4h4a2 2 0 0 1 1.936 2.5l-8 28A6 6 0 0 1 36.136 50H27.864A6 6 0 0 1 22.064 44.5l-8-28A2 2 0 0 1 16 14h4v-4z"/>
  <path fill="#047857" d="M26 14h12v4H26z"/>
  <circle cx="24" cy="32" r="3" fill="#fbbf24"/>
  <circle cx="40" cy="32" r="3" fill="#fbbf24"/>
  <path fill="#065f46" d="M22 40c2.5 2 6.5 3 10 3s7.5-1 10-3l-2 4c-2.5 1.5-5.5 2-8 2s-5.5-.5-8-2l-2-4z"/>
</svg>